# xmcd CD database file
#
# Track frame offsets:
#	150
#	5612
#	134524
#
# Disc length: 2657 seconds
#
# Revision: 0
# Processed by: cddbd v1.5.2PL0 Copyright (c) Steve Scherf et al.
# Submitted via: CDex 1.51
#
DISCID=210a5f03
DTITLE=Tom Kenyon - Hathor Workshop Retreat 2000 CD8 44min.
DYEAR=2000
DGENRE=New Age
TTITLE0=Hathor Workshop Retreat CD8 Reise in die Unterwelt Anubis
TTITLE1=Hathor Workshop Retreat CD8 Ausklang - Oeffnug Kronenchakra
TTITLE2=Hathor Workshop Retreat CD8
EXTD=YEAR: 2000
EXTT0=
EXTT1=
EXTT2=
PLAYORDER=
